# xmcd CD database file
#
# Track frame offsets:
#	150
#	24754
#	39949
#	65292
#	90887
#	115699
#	140531
#	162695
#	197778
#	216418
#	237198
#	260396
#	279703
#	303466
#
# Disc length: 4319 seconds
#
# Revision: 0
# Processed by: cddbd v1.5PL3 Copyright (c) Steve Scherf et al.
# Submitted via: CDex 1.50Beta7
#
DISCID=be10dd0e
DTITLE=Brainstorm - Soul Temptation
DYEAR=2003
DGENRE=Heavy Metal
TTITLE0=Highs Without Lows
TTITLE1=Doorway to Survive
TTITLE2=The Leading
TTITLE3=Nunca Nos Rendimos
TTITLE4=Fading
TTITLE5=Trinity of Lust-Shiva's Tears
TTITLE6=Trinity of Lust-Fornever
TTITLE7=Trinity of Lust-Soul Temptation
TTITLE8=Dying Outside
TTITLE9=To The Head
TTITLE10=Rising
TTITLE11=Don't Wait for Me
TTITLE12=Blind Suffering (Live)
TTITLE13=Crash Depth (Live)
EXTD=YEAR: 2003
EXTT0=
EXTT1=
EXTT2=
EXTT3=
EXTT4=
EXTT5=
EXTT6=
EXTT7=
EXTT8=
EXTT9=
EXTT10=
EXTT11=
EXTT12=
EXTT13=
PLAYORDER=
